<svg xmlns="http://www.w3.org/2000/svg" viewBox="0 0 136.06 55.86"><title>logo_Asset 1</title><g id="Layer_2" data-name="Layer 2"><g id="back"><g id="logo"><path d="M51.73,55.19a.63.63,0,0,1-.66.66H48V46.57h3a.64.64,0,0,1,.47.19.65.65,0,0,1,.18.47V50a.75.75,0,0,1-.33.62l-.65.39.7.45a.65.65,0,0,1,.31.6Zm-.85-5.09V47.3h-2v3.35h1.22Zm0,5V51.92l-.84-.55H48.84v3.75Z"/><path d="M58,55.19a.64.64,0,0,1-.67.66h-2.6a.62.62,0,0,1-.47-.19.64.64,0,0,1-.18-.47v-8a.64.64,0,0,1,.18-.47.64.64,0,0,1,.47-.19h2.6a.65.65,0,0,1,.48.19.65.65,0,0,1,.19.47Zm-.82-.07V47.3H54.91v7.82Z"/><path d="M64.07,55.86h-.85L62,52l-1.24,3.81h-.83v0l1.66-4.7Q60,46.6,60,46.57h.87L62,50.1l1.16-3.53H64v.06l-1.54,4.43Q64.08,55.84,64.07,55.86Z"/><path d="M69.59,55.19a.64.64,0,0,1-.19.47.61.61,0,0,1-.47.19H66.6a.64.64,0,0,1-.48-.19.63.63,0,0,1-.19-.47V52.84h.83v2.28h2V52.92l-2.56-3.1a1.09,1.09,0,0,1-.27-.71V47.23a.64.64,0,0,1,.19-.47.65.65,0,0,1,.48-.19h2.34a.62.62,0,0,1,.47.19.65.65,0,0,1,.19.47v2.16h-.83V47.3h-2v2l2.57,3.1a1.06,1.06,0,0,1,.26.69Z"/><path d="M75.85,55.86H75V51.39H72.79v4.46H72V46.57h.82v4.08H75V46.57h.82Z"/><path d="M82.16,55.19a.62.62,0,0,1-.19.47.64.64,0,0,1-.48.19H78.9a.62.62,0,0,1-.47-.19.63.63,0,0,1-.18-.47v-8a.63.63,0,0,1,.65-.66h2.6a.65.65,0,0,1,.48.19.63.63,0,0,1,.19.47Zm-.83-.07V47.3H79.06v7.82Z"/><path d="M88.23,51.5A.65.65,0,0,1,88,52a.67.67,0,0,1-.48.18H85.38v3.68h-.82V46.57h3a.65.65,0,0,1,.48.19.63.63,0,0,1,.19.47Zm-.83-.06V47.3h-2v4.14Z"/><rect x="1.05" y="51.05" width="41.82" height="1.02"/><rect x="93.37" y="51.05" width="41.82" height="1.02"/><path d="M46.82,42.42V0H89.24V42.42Zm2.85-2.85H86.39V2.85H49.67Z"/><rect x="58.7" y="11.87" width="18.67" height="18.68"/><path d="M93.64,42.42V0h42.42V42.42Zm4.94-2.85h32.53L114.85,23Zm18.26-18.65,16.36,16.72V4.2ZM96.49,37.64l16.37-16.72L96.49,4.2Zm18.36-18.76,15.69-16H99.16Z"/><path d="M0,42.42V0H42.42V42.42Zm2.85-2.85H39.57V22.63H2.85Zm0-19.78H39.57V2.85H2.85Z"/><rect x="11.87" y="8.82" width="18.42" height="4.86"/><rect x="11.87" y="28.69" width="18.42" height="4.86"/></g></g></g></svg>